<svg xmlns="http://www.w3.org/2000/svg" width="342" height="280" viewBox="0 0 342 280" version="1.1"><path d="M 120.191 22.781 C 117.803 23.525, 117.644 23.910, 118.651 26.533 C 119.387 28.452, 119.795 28.116, 112 32.009 C 96.208 39.896, 92 44.279, 92 52.843 C 92 54.992, 91.719 58.156, 91.375 59.875 L 90.750 63 82.375 63 L 74 63 74 52.700 C 74 46.022, 73.578 41.978, 72.800 41.200 C 71.116 39.516, 38.884 39.516, 37.200 41.200 C 35.461 42.939, 35.461 222.061, 37.200 223.800 C 38.093 224.693, 48.570 225, 78.165 225 C 116.456 225, 117.968 224.928, 118.965 223.066 C 120.443 220.304, 120.308 200.708, 118.800 199.200 C 117.940 198.340, 111.422 198, 95.800 198 L 74 198 74 152.941 C 74 128.159, 74.360 108.105, 74.801 108.377 C 75.241 108.649, 82.553 119.502, 91.051 132.494 C 122.717 180.913, 150.534 222.374, 151.576 222.707 C 152.168 222.896, 157.317 215.952, 163.018 207.275 C 188.818 168.009, 194.265 160, 195.167 160 C 195.697 160, 197.031 160.481, 198.130 161.069 C 200.693 162.441, 201.368 161.867, 208.838 151.974 L 214.775 144.111 215.440 151.805 C 216.546 164.596, 218.864 179.098, 220.980 186.464 C 226.850 206.893, 237.880 220.301, 253 225.387 C 260.651 227.961, 269.786 228.427, 276.896 226.605 C 286.521 224.139, 289.910 222.193, 297.018 215.050 C 308.773 203.238, 313.931 188.114, 313.980 165.315 C 314.005 153.660, 313.220 151.633, 307.741 149.210 C 299.992 145.782, 295.898 144.702, 294.802 145.798 C 294.203 146.397, 293.715 154.336, 293.612 165.156 C 293.449 182.121, 293.255 183.914, 291.032 189 C 286.151 200.170, 280.525 204.834, 273.340 203.668 C 263.098 202.006, 258.042 188.721, 255.962 158 C 255.335 148.752, 255.123 134.248, 255.477 125 C 257.323 76.909, 262.921 59.206, 275.537 61.573 C 280.678 62.537, 283.605 65.360, 286.113 71.773 C 288 76.598, 288.420 79.975, 288.780 93.214 C 289.277 111.479, 289.737 112.524, 295.733 109.009 C 297.805 107.794, 301.691 105.158, 304.368 103.150 L 309.236 99.500 308.657 87.500 C 307.804 69.846, 303.438 56.918, 295.278 47.886 C 283.767 35.144, 261.647 34.124, 246.300 45.627 C 242.730 48.303, 244.187 48.558, 228.500 42.504 C 207.883 34.548, 190.444 29.292, 171.585 25.351 C 161.880 23.323, 155.856 22.751, 141 22.444 C 130.825 22.234, 121.461 22.386, 120.191 22.781 M 127.204 26.727 C 124.609 27.047, 124.025 27.505, 124.461 28.877 C 124.906 30.278, 122.799 31.732, 113.757 36.266 C 96.830 44.755, 96.845 44.738, 95.567 56.602 L 94.500 66.500 74.131 67.202 C 62.928 67.589, 53.620 68.046, 53.447 68.219 C 53.275 68.392, 60.955 80.451, 70.516 95.017 C 80.076 109.583, 95.684 133.405, 105.199 147.955 C 129.912 185.743, 150.070 215.925, 150.964 216.478 C 151.387 216.739, 152.402 216.176, 153.221 215.226 C 154.785 213.412, 173.524 185.379, 185.960 166.250 C 189.982 160.063, 193.562 155, 193.914 155 C 194.267 155, 195.592 155.726, 196.859 156.614 C 199.072 158.164, 199.280 158.095, 202.091 154.864 C 207.371 148.796, 219 130.937, 219 128.897 C 219 127.799, 218.311 125.569, 217.470 123.941 C 215.559 120.247, 214.472 122.276, 234.163 92.765 C 242.873 79.711, 250 68.799, 250 68.515 C 250 68.232, 240.352 68, 228.559 68 C 216.766 68, 206.877 67.610, 206.582 67.133 C 206.288 66.657, 208.510 65.772, 211.520 65.167 C 216.976 64.072, 242.011 54.123, 241.988 53.060 C 241.949 51.195, 192.600 34.266, 176.485 30.589 C 158.945 26.586, 140.230 25.119, 127.204 26.727 M 120 37.660 C 118.075 38.483, 113.710 40.959, 110.299 43.163 C 103.539 47.532, 102.501 49.420, 101.728 58.750 C 101.357 63.235, 101.547 64, 103.030 64 C 104.980 64, 105.966 61.274, 105.986 55.827 C 106.003 51.240, 108.980 47.542, 117.616 41.380 C 121.127 38.874, 124 36.639, 124 36.412 C 124 35.916, 124.289 35.826, 120 37.660 M 188.099 42.446 L 193.500 47.891 206.143 50.430 C 213.097 51.826, 219.989 53.425, 221.458 53.984 C 224.779 55.247, 229.027 55.268, 230.982 54.032 C 233.039 52.732, 225.779 49.639, 204.205 42.624 C 182.031 35.414, 181.115 35.404, 188.099 42.446 M 258.500 44.362 C 256.300 45.098, 252.766 46.739, 250.647 48.010 C 246.884 50.265, 246.845 50.347, 248.992 51.496 C 251.066 52.606, 250.888 52.800, 245.845 54.944 C 241.133 56.946, 236.139 61.158, 236.036 63.216 C 236.016 63.610, 240.773 64.060, 246.607 64.216 L 257.214 64.500 248.992 77 C 244.469 83.875, 239.998 90.625, 239.055 92 C 217.843 122.940, 219.316 120.156, 221.549 125.108 C 223.280 128.948, 223.272 129.023, 220.568 134.235 C 217.937 139.305, 217.865 139.862, 218.519 149.996 C 220.947 187.614, 230.628 209.807, 248.500 218.731 C 258.068 223.509, 272.094 224.178, 282.286 220.343 C 293.177 216.245, 303 205.095, 307.048 192.240 C 311.035 179.577, 312.072 156.048, 308.702 154.694 C 308.041 154.429, 305.164 153.281, 302.309 152.144 L 297.118 150.076 297.235 163.788 C 297.360 178.495, 296.161 186.330, 292.535 194.498 C 285.099 211.250, 270.672 214.014, 262.005 200.347 C 255.803 190.568, 253.193 175.741, 252.350 145.500 C 251.654 120.545, 253.008 97.866, 256.113 82.500 C 258.505 70.663, 260.962 64.678, 265.247 60.250 C 268.017 57.388, 269.025 57, 273.693 57 C 278.369 57, 279.461 57.422, 282.954 60.578 C 289.393 66.395, 291.211 72.615, 291.772 90.750 C 292.031 99.138, 292.445 106, 292.692 106 C 292.939 106, 296.035 103.936, 299.571 101.412 L 306 96.824 306 91.543 C 306 82.822, 303.111 68.930, 299.801 61.734 C 296.574 54.718, 291.028 48.650, 284.864 45.391 C 280.476 43.071, 264.251 42.438, 258.500 44.362 M 39 132.500 L 39 220 78 220 L 117 220 117 211.617 L 117 203.234 94 202.500 L 71 201.766 71 151.771 L 71 101.777 64.674 92.638 C 56.633 81.022, 47 65.852, 47 64.804 C 47 64.362, 52.400 64, 59 64 L 71 64 71 54.500 L 71 45 55 45 L 39 45 39 132.500 M 227.500 63 C 226.181 63.567, 226.011 63.878, 227 63.914 C 227.825 63.945, 229.175 63.533, 230 63 C 231.828 61.819, 230.249 61.819, 227.500 63 M 98.146 71.750 C 95.750 81.396, 95.277 83.943, 95.785 84.452 C 96.087 84.753, 98.171 85.002, 100.417 85.004 C 105.086 85.009, 120.102 87.290, 130.701 89.606 C 134.661 90.471, 138.374 90.887, 138.951 90.530 C 139.528 90.174, 140.005 88.446, 140.012 86.691 C 140.018 84.936, 140.659 81.113, 141.436 78.196 C 142.830 72.957, 142.819 72.882, 140.483 71.994 C 136.382 70.434, 116.279 68, 107.504 68 L 99.077 68 98.146 71.750 M 100.002 74.750 C 99.376 77.912, 98.781 81.175, 98.682 82 C 98.497 83.527, 104.645 84.633, 114.750 84.891 L 119 85 119 77.617 C 119 69.033, 119.004 69.037, 107.821 69.014 L 101.142 69 100.002 74.750 M 152.172 75.100 C 150.071 80.753, 148.618 91.018, 149.758 92.158 C 150.976 93.376, 150.988 93.343, 153.004 82.882 C 154.808 73.523, 154.637 73.608, 168.986 74.918 C 179.548 75.882, 192.761 78.436, 198.421 80.608 C 199.290 80.941, 200 80.752, 200 80.187 C 200 77.489, 183.303 74.130, 165.782 73.302 L 153.064 72.701 152.172 75.100 M 69.018 76.250 C 69.034 77.347, 81.709 96.174, 87.028 103 C 88.895 105.397, 88.891 105.274, 86.910 100 C 85.775 96.975, 83.559 91.575, 81.986 88 C 78.837 80.845, 79.098 80.226, 85.316 80.070 C 88.941 79.980, 92 78.330, 92 76.465 C 92 75.263, 89.933 75, 80.500 75 C 71.957 75, 69.005 75.321, 69.018 76.250 M 205.543 75.931 C 204.676 77.333, 205.840 77.749, 215.690 79.551 L 224.741 81.207 219.791 92.691 C 217.069 99.007, 215.039 104.372, 215.279 104.612 C 215.908 105.242, 235 77.481, 235 75.937 C 235 74.708, 206.302 74.702, 205.543 75.931 M 156.935 79.604 C 156.316 81.197, 155.571 85.013, 155.281 88.083 L 154.752 93.667 161.126 95.437 C 164.632 96.411, 171.349 99.186, 176.054 101.604 C 185.369 106.391, 186.330 106.581, 192.268 104.802 C 197.164 103.335, 198.914 99.828, 199.261 90.784 L 199.500 84.555 195.500 83.207 C 188.795 80.947, 173.936 78.016, 165.781 77.344 L 158.061 76.708 156.935 79.604 M 95.003 89.750 C 95.004 90.162, 96.636 93.200, 98.629 96.500 C 102.490 102.893, 108.417 115.775, 109.502 120.132 C 110.188 122.884, 113.650 124.072, 120.500 123.905 C 123.472 123.832, 123.461 123.814, 119.393 121.940 C 117.134 120.900, 114.828 119.475, 114.269 118.774 C 113.710 118.073, 111.172 112.550, 108.628 106.500 C 102.470 91.850, 100.660 89, 97.515 89 C 96.132 89, 95.001 89.338, 95.003 89.750 M 166.415 103.907 C 167.434 105.032, 168.657 105.712, 169.134 105.417 C 169.610 105.123, 170 105.341, 170 105.902 C 170 106.462, 173.488 109.479, 177.750 112.606 C 182.012 115.732, 186.305 119.125, 187.289 120.145 C 189.415 122.350, 191.603 122.447, 195 120.487 L 197.500 119.045 194.325 119.632 C 191.293 120.194, 190.623 119.905, 186.584 116.298 C 185.844 115.636, 185.035 115.299, 184.786 115.548 C 184.537 115.796, 184.333 115.318, 184.333 114.486 C 184.333 113.437, 184.936 113.162, 186.292 113.593 C 187.585 114.003, 188.018 113.838, 187.566 113.107 C 187.190 112.498, 186.450 112, 185.921 112 C 185.393 112, 180.372 109.719, 174.762 106.930 C 167.898 103.518, 165.169 102.529, 166.415 103.907 M 201.005 113.894 C 199.633 114.275, 198.363 115.355, 198.182 116.294 C 197.713 118.727, 199.273 118.403, 202 115.500 C 203.292 114.125, 204.158 113.045, 203.924 113.100 C 203.691 113.155, 202.377 113.512, 201.005 113.894 M 157.070 118.691 C 157.032 119.896, 157.450 121.160, 158 121.500 C 159.183 122.231, 159.183 121.252, 158 118.500 C 157.171 116.572, 157.138 116.579, 157.070 118.691 M 124.098 132.149 C 123.494 133.881, 123 135.934, 123 136.711 C 123 137.530, 127.511 140.215, 133.750 143.108 C 139.662 145.849, 145.625 148.650, 147 149.332 C 148.523 150.087, 150.009 152.120, 150.804 154.536 C 152.737 160.413, 153.595 160.637, 155.276 155.703 C 156.771 151.315, 156.755 151.210, 154.170 148.624 L 151.545 146 156.023 145.951 L 160.500 145.903 154 142.539 L 147.500 139.175 152 138.803 L 156.500 138.431 150.500 135.614 C 144.306 132.706, 131.385 129, 127.438 129 C 125.822 129, 124.889 129.880, 124.098 132.149 M 118.598 145.461 C 117.169 147.334, 116 149.306, 116 149.844 C 116 150.381, 118.813 152.581, 122.250 154.732 C 130.634 159.979, 131 160.186, 131 159.676 C 131 159.434, 128.075 157.329, 124.500 155 C 120.925 152.671, 118.010 150.255, 118.022 149.633 C 118.034 149.010, 118.834 147.475, 119.798 146.221 L 121.552 143.942 129.774 147.640 C 138.783 151.692, 140.319 153.279, 132.093 150.037 C 126.071 147.663, 122 147.398, 122 149.380 C 122 150.139, 124.487 152.637, 127.527 154.932 C 130.566 157.227, 132.823 159.478, 132.541 159.933 C 132.260 160.389, 135.023 162.191, 138.682 163.939 C 145.117 167.013, 151 168.816, 151 167.714 C 151 166.539, 146.586 155.414, 145.616 154.145 C 144.721 152.974, 134.640 147.892, 124.348 143.423 C 121.290 142.096, 121.118 142.157, 118.598 145.461 M 166.784 152.248 C 161.226 154.305, 160.997 154.540, 158.534 160.692 C 157.140 164.173, 156 167.426, 156 167.920 C 156 168.415, 158.496 168.239, 161.546 167.530 C 166.943 166.276, 169.693 165, 167 165 C 166.267 165, 167.429 163.461, 169.583 161.579 C 172.901 158.681, 173.328 157.879, 172.372 156.329 C 171.557 155.008, 170.307 154.592, 167.872 154.831 C 163.285 155.282, 165.357 153.141, 170.281 152.342 C 173.725 151.783, 174.029 151.976, 176.945 156.574 C 178.625 159.224, 180 160.815, 180 160.109 C 180 158.681, 173.993 149.962, 173.080 150.066 C 172.761 150.103, 169.928 151.085, 166.784 152.248 M 119.050 159.101 C 119.754 160.421, 122.724 165.102, 125.651 169.505 L 130.973 177.509 140.429 181.444 C 149.522 185.229, 151.479 187, 146.566 187 C 145.292 187, 142.860 187.278, 141.160 187.618 C 138.110 188.228, 138.089 188.272, 139.561 191.118 C 140.381 192.703, 141.764 194, 142.636 194 C 144.757 194, 155.478 188.234, 157.491 186.010 C 158.980 184.364, 158.909 184.194, 156.475 183.583 C 152.758 182.650, 153.806 181.040, 159.542 178.871 C 164.492 176.999, 172.985 170.680, 171.957 169.634 C 171.658 169.330, 168.508 169.997, 164.957 171.118 C 155.559 174.082, 149.699 173.338, 138 167.691 C 132.775 165.170, 126.086 161.666, 123.135 159.904 C 117.975 156.825, 117.819 156.794, 119.050 159.101 M 166.041 231.250 C 157.347 234.393, 153.177 249.017, 158.031 259.343 C 160.749 265.125, 165.629 268, 172.726 268 C 179.226 268, 183.902 265.309, 186.811 259.895 C 188.828 256.142, 189.110 254.459, 188.744 248.374 C 188.277 240.587, 185.923 235.490, 181.438 232.551 C 178.080 230.351, 170.337 229.697, 166.041 231.250 M 294.397 230.637 C 293.241 230.892, 290.766 232.678, 288.897 234.606 C 285.985 237.611, 285.500 238.802, 285.500 242.951 C 285.500 246.197, 286.089 248.441, 287.290 249.768 C 289.016 251.675, 289.007 251.765, 287.040 252.279 C 285.430 252.700, 285 253.628, 285 256.684 C 285 263.815, 290.177 268, 299 268 C 304.669 268, 309.081 266.150, 311.439 262.783 C 313.580 259.727, 313.393 253.156, 311.056 249.323 C 309.385 246.584, 309.317 245.982, 310.559 244.951 C 313.220 242.743, 311.580 236.645, 307.279 232.753 C 305.313 230.974, 298.183 229.802, 294.397 230.637 M 36.443 232.287 C 36.172 232.994, 36.074 241.207, 36.225 250.537 L 36.500 267.500 43 267.500 L 49.500 267.500 49.773 249.250 L 50.045 231 43.491 231 C 39.071 231, 36.776 231.419, 36.443 232.287 M 65.607 232.582 C 65.273 233.452, 65 241.543, 65 250.563 L 65 266.962 67.498 267.589 C 71 268.468, 72.997 267.452, 73.015 264.781 C 73.029 262.520, 73.040 262.522, 74.288 265 C 75.925 268.254, 81.738 269.069, 83.764 266.329 C 85.044 264.597, 85.168 264.593, 86.107 266.250 C 86.855 267.569, 88.394 268, 92.350 268 C 95.237 268, 98.140 267.460, 98.800 266.800 C 100.090 265.510, 100.540 239.949, 99.375 234.125 C 98.754 231.019, 98.711 231, 92.411 231 L 86.073 231 84.131 237.250 C 82.222 243.392, 82.170 243.452, 81.094 240.685 C 80.493 239.137, 80 237.195, 80 236.369 C 80 232.301, 78.079 231, 72.072 231 C 67.653 231, 66.065 231.389, 65.607 232.582 M 114.630 233.250 C 114.299 234.488, 114.021 242.347, 114.014 250.715 C 114.001 264.742, 114.151 266.010, 115.934 266.965 C 118.578 268.380, 126.328 268.272, 127.800 266.800 C 128.460 266.140, 129 263.215, 129 260.300 C 129 255.053, 129.030 255, 132.066 255 C 135.528 255, 138.458 253.699, 141.750 250.701 C 143.555 249.057, 144 247.578, 144 243.226 C 144 238.389, 143.631 237.431, 140.600 234.400 L 137.200 231 126.217 231 C 115.672 231, 115.209 231.090, 114.630 233.250 M 202.467 234.326 C 202.124 236.155, 201.991 244.047, 202.171 251.864 C 202.432 263.153, 202.809 266.272, 204 267.023 C 206.146 268.377, 214.379 268.221, 215.800 266.800 C 216.460 266.140, 217.071 262.652, 217.157 259.050 L 217.315 252.500 217.907 259.288 C 218.599 267.207, 219.365 267.963, 226.715 267.985 C 230.794 267.997, 232.147 267.593, 232.930 266.131 C 233.480 265.104, 233.748 264.081, 233.526 263.859 C 233.303 263.637, 232.446 260.217, 231.621 256.260 C 230.284 249.844, 230.285 248.735, 231.638 246.024 C 233.721 241.848, 232.610 237.743, 228.395 234.042 C 224.987 231.050, 224.751 231, 214.011 231 L 203.091 231 202.467 234.326 M 244.429 233.428 C 243.340 237.767, 244.746 240, 248.567 240 L 252 240 252 253.393 C 252 264.683, 252.248 266.881, 253.582 267.393 C 256.332 268.448, 264.550 268.050, 265.800 266.800 C 266.608 265.992, 267 261.436, 267 252.863 L 267 240.127 270.250 239.813 C 273.301 239.519, 273.519 239.239, 273.807 235.250 L 274.115 231 259.577 231 L 245.038 231 244.429 233.428 M 165.768 235.059 C 160.760 237.703, 158.769 241.858, 158.813 249.570 C 158.877 260.564, 162.901 265.143, 172.500 265.143 C 182.095 265.143, 186.250 260.415, 186.250 249.500 C 186.250 241.799, 184.175 237.640, 179.019 235.010 C 174.121 232.511, 170.569 232.524, 165.768 235.059 M 294.099 234.554 C 289.656 236.483, 288.064 238.711, 288.064 243 C 288.064 247.668, 289.928 249.915, 296.772 253.500 C 300.955 255.691, 302.591 257.144, 302.837 258.887 C 303.243 261.757, 301.604 262.964, 297.273 262.985 C 293.407 263.003, 290.431 259.367, 291.516 255.950 C 292.116 254.059, 291.917 253.889, 289.849 254.526 C 286.623 255.518, 286.657 255.430, 287.980 259.441 C 289.455 263.909, 291.970 265.286, 298.659 265.286 C 307.017 265.286, 311.942 260.567, 310.489 253.952 C 309.691 250.316, 306.636 247.666, 299.750 244.638 C 293.896 242.064, 292.545 239.855, 295.200 237.200 C 298.114 234.286, 305 236.629, 305 240.535 C 305 242.360, 305.537 243, 307.066 243 C 310.474 243, 309.212 238.043, 305.102 235.282 C 301.181 232.649, 298.846 232.494, 294.099 234.554 M 38.224 249.250 L 38.500 264.500 42.620 264.801 C 45.978 265.047, 46.832 264.750, 47.239 263.196 C 48.029 260.171, 48.180 241.475, 47.445 237.557 C 46.800 234.119, 46.630 234, 42.363 234 L 37.948 234 38.224 249.250 M 67.224 249.237 C 67.470 262.826, 67.689 264.511, 69.250 264.811 C 70.812 265.111, 71.007 264.144, 71.067 255.823 L 71.135 246.500 73.867 255.500 C 76.333 263.622, 76.854 264.530, 79.212 264.808 C 81.612 265.091, 81.958 264.644, 83.463 259.308 C 84.364 256.114, 85.718 251.700, 86.472 249.500 C 87.818 245.571, 87.843 245.672, 87.921 255.250 L 88 265 92.500 265 L 97 265 97 249.500 L 97 234 92.214 234 L 87.428 234 84.866 243.215 L 82.304 252.431 80.707 247.465 C 79.829 244.734, 78.618 240.588, 78.017 238.250 L 76.923 234 71.935 234 L 66.948 234 67.224 249.237 M 117 249.384 L 117 265 121.452 265 L 125.905 265 126.202 258.750 L 126.500 252.500 130 252.230 C 131.925 252.082, 134.524 251.733, 135.775 251.455 C 142.117 250.046, 144.287 241.497, 139.455 236.958 C 137.201 234.840, 135.774 234.521, 126.955 234.167 L 117 233.767 117 249.384 M 205 249.384 L 205 265 209.500 265 L 214 265 214 258.059 C 214 251.512, 214.799 249.132, 216.444 250.777 C 216.841 251.175, 217.692 251.500, 218.333 251.500 C 219.042 251.500, 219.696 253.921, 220 257.668 C 220.275 261.060, 220.789 264.124, 221.143 264.477 C 221.496 264.830, 223.784 264.979, 226.227 264.809 L 230.669 264.500 229.481 258.578 C 228.749 254.927, 227.519 252.029, 226.276 251.022 C 224.280 249.406, 224.289 249.371, 227.129 247.741 C 230.982 245.529, 231.137 240.417, 227.455 236.958 C 225.201 234.840, 223.774 234.521, 214.955 234.167 L 205 233.767 205 249.384 M 247 235.500 C 247 236.548, 248.056 237, 250.500 237 L 254 237 254 251 L 254 265 259 265 L 264 265 264 251 L 264 237 268 237 C 270.889 237, 272 236.583, 272 235.500 C 272 234.247, 269.944 234, 259.500 234 C 249.056 234, 247 234.247, 247 235.500 M 169.873 237.653 C 168.060 239.837, 167.431 254.156, 168.927 259.152 C 169.852 262.239, 170.559 263, 172.502 263 C 175.852 263, 177.401 257.004, 176.708 246.713 C 176.041 236.802, 173.440 233.355, 169.873 237.653 M 126 242.941 C 126 246.209, 126.363 249.106, 126.806 249.380 C 127.249 249.654, 128.712 249.333, 130.056 248.666 C 134.744 246.342, 133.470 237, 128.465 237 C 126.122 237, 126 237.293, 126 242.941 M 214.667 237.667 C 213.660 238.673, 213.867 246.800, 214.916 247.448 C 215.420 247.760, 216.995 247.572, 218.416 247.032 C 222.814 245.360, 221.606 237, 216.967 237 C 216.068 237, 215.033 237.300, 214.667 237.667 M 171.491 240.162 C 170.551 242.613, 171.416 258.992, 172.500 259.256 C 173.850 259.585, 174.394 240.994, 173.072 239.672 C 172.397 238.997, 171.877 239.158, 171.491 240.162 M 296 239.902 C 296 241.248, 301.840 243.069, 302.537 241.940 C 302.857 241.423, 302.840 240.550, 302.500 240 C 301.731 238.755, 296 238.669, 296 239.902 M 129.252 243.500 C 129.263 245.700, 129.468 246.482, 129.707 245.238 C 129.946 243.994, 129.937 242.194, 129.687 241.238 C 129.437 240.282, 129.241 241.300, 129.252 243.500 M 217.068 243.050 C 217.131 246.290, 217.202 246.361, 218.235 244.217 C 219.048 242.530, 219.031 241.631, 218.167 240.767 C 217.278 239.878, 217.016 240.420, 217.068 243.050 M 294 257.516 C 294 259.688, 294.439 260, 297.500 260 C 299.425 260, 301 259.633, 301 259.185 C 301 258.737, 299.425 257.619, 297.500 256.701 L 294 255.032 294 257.516" stroke="none" fill="#d5b069" fill-rule="evenodd"/><path d="M 127.204 26.727 C 124.609 27.047, 124.025 27.505, 124.461 28.877 C 124.906 30.278, 122.799 31.732, 113.757 36.266 C 96.830 44.755, 96.845 44.738, 95.567 56.602 L 94.500 66.500 74.131 67.202 C 62.928 67.589, 53.620 68.046, 53.447 68.219 C 53.275 68.392, 60.955 80.451, 70.516 95.017 C 80.076 109.583, 95.684 133.405, 105.199 147.955 C 129.912 185.743, 150.070 215.925, 150.964 216.478 C 151.387 216.739, 152.402 216.176, 153.221 215.226 C 154.785 213.412, 173.524 185.379, 185.960 166.250 C 189.982 160.063, 193.562 155, 193.914 155 C 194.267 155, 195.592 155.726, 196.859 156.614 C 199.072 158.164, 199.280 158.095, 202.091 154.864 C 207.371 148.796, 219 130.937, 219 128.897 C 219 127.799, 218.311 125.569, 217.470 123.941 C 215.559 120.247, 214.472 122.276, 234.163 92.765 C 242.873 79.711, 250 68.799, 250 68.515 C 250 68.232, 240.352 68, 228.559 68 C 216.766 68, 206.877 67.610, 206.582 67.133 C 206.288 66.657, 208.510 65.772, 211.520 65.167 C 216.976 64.072, 242.011 54.123, 241.988 53.060 C 241.949 51.195, 192.600 34.266, 176.485 30.589 C 158.945 26.586, 140.230 25.119, 127.204 26.727 M 120 37.660 C 118.075 38.483, 113.710 40.959, 110.299 43.163 C 103.539 47.532, 102.501 49.420, 101.728 58.750 C 101.357 63.235, 101.547 64, 103.030 64 C 104.980 64, 105.966 61.274, 105.986 55.827 C 106.003 51.240, 108.980 47.542, 117.616 41.380 C 121.127 38.874, 124 36.639, 124 36.412 C 124 35.916, 124.289 35.826, 120 37.660 M 188.099 42.446 L 193.500 47.891 206.143 50.430 C 213.097 51.826, 219.989 53.425, 221.458 53.984 C 224.779 55.247, 229.027 55.268, 230.982 54.032 C 233.039 52.732, 225.779 49.639, 204.205 42.624 C 182.031 35.414, 181.115 35.404, 188.099 42.446 M 258.500 44.362 C 256.300 45.098, 252.766 46.739, 250.647 48.010 C 246.884 50.265, 246.845 50.347, 248.992 51.496 C 251.066 52.606, 250.888 52.800, 245.845 54.944 C 241.133 56.946, 236.139 61.158, 236.036 63.216 C 236.016 63.610, 240.773 64.060, 246.607 64.216 L 257.214 64.500 248.992 77 C 244.469 83.875, 239.998 90.625, 239.055 92 C 217.843 122.940, 219.316 120.156, 221.549 125.108 C 223.280 128.948, 223.272 129.023, 220.568 134.235 C 217.937 139.305, 217.865 139.862, 218.519 149.996 C 220.947 187.614, 230.628 209.807, 248.500 218.731 C 258.068 223.509, 272.094 224.178, 282.286 220.343 C 293.177 216.245, 303 205.095, 307.048 192.240 C 311.035 179.577, 312.072 156.048, 308.702 154.694 C 308.041 154.429, 305.164 153.281, 302.309 152.144 L 297.118 150.076 297.235 163.788 C 297.360 178.495, 296.161 186.330, 292.535 194.498 C 285.099 211.250, 270.672 214.014, 262.005 200.347 C 255.803 190.568, 253.193 175.741, 252.350 145.500 C 251.654 120.545, 253.008 97.866, 256.113 82.500 C 258.505 70.663, 260.962 64.678, 265.247 60.250 C 268.017 57.388, 269.025 57, 273.693 57 C 278.369 57, 279.461 57.422, 282.954 60.578 C 289.393 66.395, 291.211 72.615, 291.772 90.750 C 292.031 99.138, 292.445 106, 292.692 106 C 292.939 106, 296.035 103.936, 299.571 101.412 L 306 96.824 306 91.543 C 306 82.822, 303.111 68.930, 299.801 61.734 C 296.574 54.718, 291.028 48.650, 284.864 45.391 C 280.476 43.071, 264.251 42.438, 258.500 44.362 M 39 132.500 L 39 220 78 220 L 117 220 117 211.617 L 117 203.234 94 202.500 L 71 201.766 71 151.771 L 71 101.777 64.674 92.638 C 56.633 81.022, 47 65.852, 47 64.804 C 47 64.362, 52.400 64, 59 64 L 71 64 71 54.500 L 71 45 55 45 L 39 45 39 132.500 M 98.146 71.750 C 95.750 81.396, 95.277 83.943, 95.785 84.452 C 96.087 84.753, 98.171 85.002, 100.417 85.004 C 105.086 85.009, 120.102 87.290, 130.701 89.606 C 134.661 90.471, 138.374 90.887, 138.951 90.530 C 139.528 90.174, 140.005 88.446, 140.012 86.691 C 140.018 84.936, 140.659 81.113, 141.436 78.196 C 142.830 72.957, 142.819 72.882, 140.483 71.994 C 136.382 70.434, 116.279 68, 107.504 68 L 99.077 68 98.146 71.750 M 100.002 74.750 C 99.376 77.912, 98.781 81.175, 98.682 82 C 98.497 83.527, 104.645 84.633, 114.750 84.891 L 119 85 119 77.617 C 119 69.033, 119.004 69.037, 107.821 69.014 L 101.142 69 100.002 74.750 M 152.172 75.100 C 150.071 80.753, 148.618 91.018, 149.758 92.158 C 150.976 93.376, 150.988 93.343, 153.004 82.882 C 154.808 73.523, 154.637 73.608, 168.986 74.918 C 179.548 75.882, 192.761 78.436, 198.421 80.608 C 199.290 80.941, 200 80.752, 200 80.187 C 200 77.489, 183.303 74.130, 165.782 73.302 L 153.064 72.701 152.172 75.100 M 69.018 76.250 C 69.034 77.347, 81.709 96.174, 87.028 103 C 88.895 105.397, 88.891 105.274, 86.910 100 C 85.775 96.975, 83.559 91.575, 81.986 88 C 78.837 80.845, 79.098 80.226, 85.316 80.070 C 88.941 79.980, 92 78.330, 92 76.465 C 92 75.263, 89.933 75, 80.500 75 C 71.957 75, 69.005 75.321, 69.018 76.250 M 205.543 75.931 C 204.676 77.333, 205.840 77.749, 215.690 79.551 L 224.741 81.207 219.791 92.691 C 217.069 99.007, 215.039 104.372, 215.279 104.612 C 215.908 105.242, 235 77.481, 235 75.937 C 235 74.708, 206.302 74.702, 205.543 75.931 M 156.935 79.604 C 156.316 81.197, 155.571 85.013, 155.281 88.083 L 154.752 93.667 161.126 95.437 C 164.632 96.411, 171.349 99.186, 176.054 101.604 C 185.369 106.391, 186.330 106.581, 192.268 104.802 C 197.164 103.335, 198.914 99.828, 199.261 90.784 L 199.500 84.555 195.500 83.207 C 188.795 80.947, 173.936 78.016, 165.781 77.344 L 158.061 76.708 156.935 79.604 M 95.003 89.750 C 95.004 90.162, 96.636 93.200, 98.629 96.500 C 102.490 102.893, 108.417 115.775, 109.502 120.132 C 110.188 122.884, 113.650 124.072, 120.500 123.905 C 123.472 123.832, 123.461 123.814, 119.393 121.940 C 117.134 120.900, 114.828 119.475, 114.269 118.774 C 113.710 118.073, 111.172 112.550, 108.628 106.500 C 102.470 91.850, 100.660 89, 97.515 89 C 96.132 89, 95.001 89.338, 95.003 89.750 M 166.415 103.907 C 167.434 105.032, 168.657 105.712, 169.134 105.417 C 169.610 105.123, 170 105.341, 170 105.902 C 170 106.462, 173.488 109.479, 177.750 112.606 C 182.012 115.732, 186.305 119.125, 187.289 120.145 C 189.415 122.350, 191.603 122.447, 195 120.487 L 197.500 119.045 194.325 119.632 C 191.293 120.194, 190.623 119.905, 186.584 116.298 C 185.844 115.636, 185.035 115.299, 184.786 115.548 C 184.537 115.796, 184.333 115.318, 184.333 114.486 C 184.333 113.437, 184.936 113.162, 186.292 113.593 C 187.585 114.003, 188.018 113.838, 187.566 113.107 C 187.190 112.498, 186.450 112, 185.921 112 C 185.393 112, 180.372 109.719, 174.762 106.930 C 167.898 103.518, 165.169 102.529, 166.415 103.907 M 201.005 113.894 C 199.633 114.275, 198.363 115.355, 198.182 116.294 C 197.713 118.727, 199.273 118.403, 202 115.500 C 203.292 114.125, 204.158 113.045, 203.924 113.100 C 203.691 113.155, 202.377 113.512, 201.005 113.894 M 157.070 118.691 C 157.032 119.896, 157.450 121.160, 158 121.500 C 159.183 122.231, 159.183 121.252, 158 118.500 C 157.171 116.572, 157.138 116.579, 157.070 118.691 M 124.098 132.149 C 123.494 133.881, 123 135.934, 123 136.711 C 123 137.530, 127.511 140.215, 133.750 143.108 C 139.662 145.849, 145.625 148.650, 147 149.332 C 148.523 150.087, 150.009 152.120, 150.804 154.536 C 152.737 160.413, 153.595 160.637, 155.276 155.703 C 156.771 151.315, 156.755 151.210, 154.170 148.624 L 151.545 146 156.023 145.951 L 160.500 145.903 154 142.539 L 147.500 139.175 152 138.803 L 156.500 138.431 150.500 135.614 C 144.306 132.706, 131.385 129, 127.438 129 C 125.822 129, 124.889 129.880, 124.098 132.149 M 118.598 145.461 C 117.169 147.334, 116 149.306, 116 149.844 C 116 150.381, 118.813 152.581, 122.250 154.732 C 130.634 159.979, 131 160.186, 131 159.676 C 131 159.434, 128.075 157.329, 124.500 155 C 120.925 152.671, 118.010 150.255, 118.022 149.633 C 118.034 149.010, 118.834 147.475, 119.798 146.221 L 121.552 143.942 129.774 147.640 C 138.783 151.692, 140.319 153.279, 132.093 150.037 C 126.071 147.663, 122 147.398, 122 149.380 C 122 150.139, 124.487 152.637, 127.527 154.932 C 130.566 157.227, 132.823 159.478, 132.541 159.933 C 132.260 160.389, 135.023 162.191, 138.682 163.939 C 145.117 167.013, 151 168.816, 151 167.714 C 151 166.539, 146.586 155.414, 145.616 154.145 C 144.721 152.974, 134.640 147.892, 124.348 143.423 C 121.290 142.096, 121.118 142.157, 118.598 145.461 M 166.784 152.248 C 161.226 154.305, 160.997 154.540, 158.534 160.692 C 157.140 164.173, 156 167.426, 156 167.920 C 156 168.415, 158.496 168.239, 161.546 167.530 C 166.943 166.276, 169.693 165, 167 165 C 166.267 165, 167.429 163.461, 169.583 161.579 C 172.901 158.681, 173.328 157.879, 172.372 156.329 C 171.557 155.008, 170.307 154.592, 167.872 154.831 C 163.285 155.282, 165.357 153.141, 170.281 152.342 C 173.725 151.783, 174.029 151.976, 176.945 156.574 C 178.625 159.224, 180 160.815, 180 160.109 C 180 158.681, 173.993 149.962, 173.080 150.066 C 172.761 150.103, 169.928 151.085, 166.784 152.248 M 119.050 159.101 C 119.754 160.421, 122.724 165.102, 125.651 169.505 L 130.973 177.509 140.429 181.444 C 149.522 185.229, 151.479 187, 146.566 187 C 145.292 187, 142.860 187.278, 141.160 187.618 C 138.110 188.228, 138.089 188.272, 139.561 191.118 C 140.381 192.703, 141.764 194, 142.636 194 C 144.757 194, 155.478 188.234, 157.491 186.010 C 158.980 184.364, 158.909 184.194, 156.475 183.583 C 152.758 182.650, 153.806 181.040, 159.542 178.871 C 164.492 176.999, 172.985 170.680, 171.957 169.634 C 171.658 169.330, 168.508 169.997, 164.957 171.118 C 155.559 174.082, 149.699 173.338, 138 167.691 C 132.775 165.170, 126.086 161.666, 123.135 159.904 C 117.975 156.825, 117.819 156.794, 119.050 159.101 M 165.768 235.059 C 160.760 237.703, 158.769 241.858, 158.813 249.570 C 158.877 260.564, 162.901 265.143, 172.500 265.143 C 182.095 265.143, 186.250 260.415, 186.250 249.500 C 186.250 241.799, 184.175 237.640, 179.019 235.010 C 174.121 232.511, 170.569 232.524, 165.768 235.059 M 294.099 234.554 C 289.656 236.483, 288.064 238.711, 288.064 243 C 288.064 247.668, 289.928 249.915, 296.772 253.500 C 300.955 255.691, 302.591 257.144, 302.837 258.887 C 303.243 261.757, 301.604 262.964, 297.273 262.985 C 293.407 263.003, 290.431 259.367, 291.516 255.950 C 292.116 254.059, 291.917 253.889, 289.849 254.526 C 286.623 255.518, 286.657 255.430, 287.980 259.441 C 289.455 263.909, 291.970 265.286, 298.659 265.286 C 307.017 265.286, 311.942 260.567, 310.489 253.952 C 309.691 250.316, 306.636 247.666, 299.750 244.638 C 293.896 242.064, 292.545 239.855, 295.200 237.200 C 298.114 234.286, 305 236.629, 305 240.535 C 305 242.360, 305.537 243, 307.066 243 C 310.474 243, 309.212 238.043, 305.102 235.282 C 301.181 232.649, 298.846 232.494, 294.099 234.554 M 38.224 249.250 L 38.500 264.500 42.620 264.801 C 45.978 265.047, 46.832 264.750, 47.239 263.196 C 48.029 260.171, 48.180 241.475, 47.445 237.557 C 46.800 234.119, 46.630 234, 42.363 234 L 37.948 234 38.224 249.250 M 67.224 249.237 C 67.470 262.826, 67.689 264.511, 69.250 264.811 C 70.812 265.111, 71.007 264.144, 71.067 255.823 L 71.135 246.500 73.867 255.500 C 76.333 263.622, 76.854 264.530, 79.212 264.808 C 81.612 265.091, 81.958 264.644, 83.463 259.308 C 84.364 256.114, 85.718 251.700, 86.472 249.500 C 87.818 245.571, 87.843 245.672, 87.921 255.250 L 88 265 92.500 265 L 97 265 97 249.500 L 97 234 92.214 234 L 87.428 234 84.866 243.215 L 82.304 252.431 80.707 247.465 C 79.829 244.734, 78.618 240.588, 78.017 238.250 L 76.923 234 71.935 234 L 66.948 234 67.224 249.237 M 117 249.384 L 117 265 121.452 265 L 125.905 265 126.202 258.750 L 126.500 252.500 130 252.230 C 131.925 252.082, 134.524 251.733, 135.775 251.455 C 142.117 250.046, 144.287 241.497, 139.455 236.958 C 137.201 234.840, 135.774 234.521, 126.955 234.167 L 117 233.767 117 249.384 M 205 249.384 L 205 265 209.500 265 L 214 265 214 258.059 C 214 254.241, 214.338 250.919, 214.750 250.676 C 215.162 250.434, 216.512 250.617, 217.750 251.085 C 219.689 251.818, 220.002 252.666, 220.015 257.218 C 220.036 264.306, 220.751 265.187, 226.181 264.811 L 230.669 264.500 229.481 258.578 C 228.749 254.927, 227.519 252.029, 226.276 251.022 C 224.280 249.406, 224.289 249.371, 227.129 247.741 C 230.982 245.529, 231.137 240.417, 227.455 236.958 C 225.201 234.840, 223.774 234.521, 214.955 234.167 L 205 233.767 205 249.384 M 247 235.500 C 247 236.548, 248.056 237, 250.500 237 L 254 237 254 251 L 254 265 259 265 L 264 265 264 251 L 264 237 268 237 C 270.889 237, 272 236.583, 272 235.500 C 272 234.247, 269.944 234, 259.500 234 C 249.056 234, 247 234.247, 247 235.500 M 169.873 237.653 C 168.060 239.837, 167.431 254.156, 168.927 259.152 C 169.852 262.239, 170.559 263, 172.502 263 C 175.852 263, 177.401 257.004, 176.708 246.713 C 176.041 236.802, 173.440 233.355, 169.873 237.653 M 126 242.941 C 126 246.209, 126.363 249.106, 126.806 249.380 C 127.249 249.654, 128.712 249.333, 130.056 248.666 C 134.744 246.342, 133.470 237, 128.465 237 C 126.122 237, 126 237.293, 126 242.941 M 214.667 237.667 C 213.660 238.673, 213.867 246.800, 214.916 247.448 C 215.420 247.760, 216.995 247.572, 218.416 247.032 C 222.814 245.360, 221.606 237, 216.967 237 C 216.068 237, 215.033 237.300, 214.667 237.667" stroke="none" fill="#16134c" fill-rule="evenodd"/></svg>